<?xml version="1.0" encoding="utf-8"?>
<!-- Generator: Adobe Illustrator 24.0.0, SVG Export Plug-In . SVG Version: 6.00 Build 0)  -->
<svg version="1.1" id="Layer_1" xmlns="http://www.w3.org/2000/svg" xmlns:xlink="http://www.w3.org/1999/xlink" x="0px" y="0px"
	 viewBox="0 0 1080 1080" style="enable-background:new 0 0 1080 1080;" xml:space="preserve">
<style type="text/css">
	.st0{fill:#FF7300;}
</style>
<g>
	<path class="st0" d="M446.31,665.32h-232.8l-40,113.6h-95.2l199.2-556.8h105.6l199.2,556.8h-96L446.31,665.32z M420.71,590.92
		l-90.4-258.4l-91.2,258.4H420.71z"/>
	<path class="st0" d="M971.9,222.92v400.8c0,49.6-15.08,88.8-45.2,117.6c-30.14,28.8-69.74,43.2-118.8,43.2
		c-49.08,0-88.67-14.4-118.8-43.2c-30.14-28.8-45.2-68-45.2-117.6h92c0.52,24.54,6.8,44,18.8,58.4c12,14.4,29.72,21.6,53.2,21.6
		c23.46,0,41.33-7.33,53.6-22c12.26-14.66,18.4-34,18.4-58v-400.8H971.9z"/>
</g>
</svg>
