<svg xmlns="http://www.w3.org/2000/svg" viewBox="0 0 79.41 190.63"><defs><style>.cls-1{fill:#fff;}</style></defs><title>Asset 3</title><g id="Layer_2" data-name="Layer 2"><g id="Capa_2" data-name="Capa 2"><path class="cls-1" d="M45.56,181.57c-2.26-1.42-3.7-2.27-5.08-3.21A103.73,103.73,0,0,1,8.61,144.64C-3.46,124-2.53,103.1,9.47,82.57l1.61-2.76a10.6,10.6,0,0,0-.6-1.49C-.8,59.69,1.7,41.81,13.84,24.77A68.88,68.88,0,0,1,42.44,1.59,19.36,19.36,0,0,1,48.36,0c2.45-.23,4.36,1.51,4.25,3.47-.13,2.27-1.76,2.67-3.67,2.89a12.07,12.07,0,0,0-4.06,1.11c-13.82,6.92-24.57,17-31,31.2C9,49.39,9,60.27,14.37,70.94a24.42,24.42,0,0,0,1.8,2.55c1.44-1.34,2.69-2.53,4-3.7C28.36,62.3,37.84,57.38,49,56.06c8-.94,15.59,0,22.27,4.94,9,6.67,10.82,18.36,4.15,27.46-5.47,7.45-13.1,11-22.12,11.43C41,100.48,30.1,96.58,20.45,89.08c-1.35-1-2.68-2.13-4.31-3.42a37.14,37.14,0,0,0-2.53,3.78c-8.48,17-9.15,34.05.49,50.68a96.39,96.39,0,0,0,31.63,33.21,21.21,21.21,0,0,0,2.07,1.18,16,16,0,0,0,1.9.56,18.86,18.86,0,0,0-.85-3.09c-1.59-3.3-3.33-6.52-4.89-9.83-.83-1.75-.8-3.49,1.26-4.45,1.77-.82,3.11,0,4.05,1.48s1.73,3,2.61,4.56L62,181.05c.08.14.17.27.26.4,1.11,1.63,2.07,3.37,1,5.32S60,189.08,57.84,189c-3.18-.06-6.37-.24-9.54-.06-7.46.43-14.91,1-22.36,1.6-4,.3-5.93-.59-6.06-2.86s1.68-3.72,5.5-4.12c5.21-.55,10.45-.89,15.68-1.35C42.23,182.14,43.39,181.9,45.56,181.57ZM20.77,79.08c8,11.22,28.75,17.07,40.71,11.83a19.21,19.21,0,0,0,8.66-7.2c4.1-6.33,2.5-14-4.1-17.64a23,23,0,0,0-8.94-3C42.14,61.85,30.58,68.53,20.77,79.08Z"/></g></g></svg>